<svg width="583" height="124" viewBox="0 0 583 124" fill="none" xmlns="http://www.w3.org/2000/svg">
<path d="M81.4263 54.5381V11.8194C81.4263 11.4795 81.2961 11.153 81.0649 10.9124C80.8329 10.6718 80.5182 10.5367 80.1904 10.5367H12.8937C12.2107 10.5367 11.657 11.111 11.657 11.8195V54.5381C11.657 54.878 11.7872 55.2045 12.0192 55.4451C12.2512 55.6848 12.5651 55.8199 12.8937 55.8199H80.1904C80.5181 55.8199 80.8329 55.6848 81.0649 55.4451C81.296 55.2045 81.4263 54.878 81.4263 54.5381L81.4263 54.5381ZM78.9537 53.2554H14.1298V13.1014H78.9537V53.2554Z" fill="#AEAEAE"/>
<path d="M6.04891 72.5346H86.8664C88.4696 72.5319 90.0065 71.87 91.1405 70.6946C92.2737 69.5184 92.9119 67.9243 92.9145 66.2615V60.0716C92.9145 59.7317 92.7843 59.4052 92.5523 59.1646C92.3203 58.924 92.0064 58.7889 91.6778 58.7889H87.3942V10.1531C87.3933 8.78813 86.8698 7.47941 85.9393 6.51421C85.0087 5.54905 83.747 5.00608 82.4317 5.00427H10.6597C9.34365 5.00606 8.08186 5.54903 7.15214 6.51421C6.22159 7.47937 5.69809 8.78804 5.69723 10.1531V58.7889H1.23587C0.552818 58.7889 0 59.3632 0 60.0717V66.2616C0.00258735 67.9244 0.640777 69.5185 1.77489 70.6946C2.90813 71.8709 4.44592 72.5319 6.04902 72.5346L6.04891 72.5346ZM8.16964 10.1524C8.1705 8.72653 9.28477 7.57002 10.6594 7.56819H82.4314C83.8061 7.56998 84.9203 8.72658 84.9212 10.1524V58.7882H8.16831L8.16964 10.1524ZM54.3264 61.3529L53.1794 64.115C53.0354 64.4674 52.7033 64.6964 52.3342 64.6973H40.7482C40.38 64.6964 40.0471 64.4683 39.903 64.1168L38.756 61.3538L54.3264 61.3529ZM2.47345 61.3529H36.0633L37.6338 65.1322C37.8951 65.7646 38.3298 66.3031 38.8835 66.6815C39.4371 67.0607 40.0857 67.262 40.7489 67.262H52.3349C52.999 67.262 53.6475 67.0599 54.2012 66.6806C54.7549 66.3022 55.1896 65.7637 55.4509 65.1313L57.0196 61.3538L90.4439 61.3529V66.2612C90.4413 67.2433 90.0636 68.1852 89.3935 68.8804C88.7234 69.5754 87.8161 69.9672 86.8682 69.9699H6.05072C5.1029 69.9672 4.19478 69.5763 3.52475 68.8813C2.85472 68.1863 2.47689 67.2444 2.47431 66.2614L2.47345 61.3529Z" fill="#AEAEAE"/>
<path d="M46.0005 27.0019C47.4357 27.0019 48.6111 28.0499 48.6111 29.355C48.6111 30.3607 49.3682 31.1733 50.3051 31.1733C51.2419 31.1733 51.999 30.3607 51.999 29.355C51.999 26.6375 50.1656 24.3699 47.6935 23.6215V22.3804C47.6935 21.3747 46.9364 20.5621 45.9995 20.5621C45.0626 20.5621 44.3055 21.3748 44.3055 22.3804V23.6215C41.8342 24.3494 40 26.6386 40 29.355C40 32.6714 42.6905 35.3458 45.9995 35.3458C47.4347 35.3458 48.6102 36.3938 48.6102 37.6989C48.6102 39.004 47.4337 40.052 45.9995 40.052C44.5643 40.052 43.3889 39.004 43.3889 37.6989C43.3889 36.6932 42.6318 35.8806 41.6949 35.8806C40.758 35.8806 40.001 36.6933 40.001 37.6989C40.001 40.4164 41.8344 42.6841 44.3065 43.4325V44.6735C44.3065 45.6792 45.0636 46.4918 46.0005 46.4918C46.9374 46.4918 47.6945 45.6792 47.6945 44.6735V43.4325C50.1857 42.7046 52 40.4154 52 37.6989C52 34.3825 49.3095 31.7082 46.0005 31.7082C44.5653 31.7082 43.3898 30.6602 43.3898 29.355C43.3898 28.0509 44.5653 27.0019 46.0005 27.0019Z" fill="#AEAEAE"/>
<path fill-rule="evenodd" clip-rule="evenodd" d="M97 29.8967C105.837 29.8967 113 37.3267 113 46.4917C113 55.6574 105.836 63.0867 97 63.0867C88.1629 63.0867 81 55.6568 81 46.4917C81 37.326 88.1635 29.8967 97 29.8967V29.8967ZM89.0791 46.7085C88.4882 46.031 88.5393 44.9852 89.1916 44.3732C89.8449 43.7603 90.8532 43.8133 91.4432 44.4898L95.4287 49.0574L104.041 39.8304C104.656 39.1747 105.667 39.1602 106.299 39.7982C106.931 40.4361 106.945 41.4841 106.33 42.1399L96.5355 52.6331L96.5334 52.6309C96.5103 52.6559 96.4853 52.6808 96.4601 52.7038C95.8078 53.3167 94.7994 53.2647 94.2085 52.5871L89.0782 46.7082L89.0791 46.7085Z" fill="#AEAEAE"/>
<path d="M304.258 65.7851V63.5167H321.755V65.7851C321.755 69.5373 324.698 72.5905 328.316 72.5905C331.934 72.5905 334.877 69.5373 334.877 65.7851V63.5167H337.064C338.271 63.5167 339.252 62.4999 339.252 61.2482V47.6375C339.252 46.3858 338.271 45.369 337.064 45.369H334.401L330.438 28.941C330.197 27.9293 329.318 27.2214 328.316 27.2214H297.696C296.695 27.2214 295.816 27.9293 295.575 28.941L291.612 45.369H288.948C287.741 45.369 286.761 46.3858 286.761 47.6375V61.2482C286.761 62.4999 287.741 63.5167 288.948 63.5167H291.135V65.7851C291.135 69.5373 294.079 72.5905 297.697 72.5905C301.314 72.5905 304.258 69.5373 304.258 65.7851H304.258ZM330.503 65.7851C330.503 67.0328 329.519 68.0536 328.316 68.0536C327.113 68.0536 326.129 67.0328 326.129 65.7851V63.5167H330.503V65.7851ZM299.406 31.7583H326.609L329.889 45.369H296.125L299.406 31.7583ZM291.134 49.9059H334.876V58.9798H291.134V49.9059ZM299.882 65.7851C299.882 67.0328 298.898 68.0536 297.695 68.0536C296.492 68.0536 295.508 67.0328 295.508 65.7851V63.5167H299.882V65.7851Z" fill="#AEAEAE"/>
<path d="M300.011 56.9162C301.218 56.9162 302.395 55.6959 302.395 54.4431C302.395 53.1914 301.219 51.9701 300.011 51.9701C298.804 51.9701 297.631 53.1904 297.631 54.4431C297.631 55.6948 298.803 56.9162 300.011 56.9162Z" fill="#AEAEAE"/>
<path d="M326.001 56.9162C327.208 56.9162 328.381 55.6959 328.381 54.4431C328.381 53.1914 327.208 51.9701 326.001 51.9701C324.794 51.9701 323.617 53.1904 323.617 54.4431C323.617 55.6948 324.789 56.9162 326.001 56.9162Z" fill="#AEAEAE"/>
<path d="M269.994 23.8175H255.41C254.203 23.8175 253.223 24.8343 253.223 26.086V37.4282C253.223 38.6799 254.203 39.6967 255.41 39.6967H269.994C271.2 39.6967 272.181 38.6799 272.181 37.4282V26.086C272.181 24.8343 271.201 23.8175 269.994 23.8175ZM267.807 35.1598H257.597V28.3544H267.807V35.1598Z" fill="#AEAEAE"/>
<path d="M260.905 44.0807C259.475 46.2266 256.141 51.5393 256.141 54.4427C256.141 58.1949 259.085 61.2481 262.702 61.2481C266.32 61.2481 269.264 58.1949 269.264 54.4427C269.264 51.5393 265.93 46.2267 264.5 44.0807C263.69 42.8553 261.714 42.8553 260.905 44.0807H260.905ZM262.703 56.7112C261.5 56.7112 260.515 55.6903 260.515 54.4467C260.533 53.753 261.443 51.7741 262.703 49.5736C263.962 51.7742 264.872 53.7519 264.89 54.4416C264.89 55.6902 263.905 56.711 262.703 56.711V56.7112Z" fill="#AEAEAE"/>
<path d="M345.813 72.5906H282.386V65.7852C282.386 64.5335 281.406 63.5168 280.199 63.5168H278.012V20.4161C278.012 19.1644 277.032 18.1476 275.825 18.1476H249.58C248.373 18.1476 247.392 19.1644 247.392 20.4161V63.5168H245.205C243.998 63.5168 243.018 64.5335 243.018 65.7852V72.5906H234.27V31.0014C234.27 16.4062 245.713 4.53691 259.785 4.53691H319.567C320.774 4.53691 321.755 3.52015 321.755 2.26846C321.755 1.01676 320.774 0 319.567 0H259.785C243.303 0 229.895 13.9055 229.895 31.0014V72.5906H223.334C222.127 72.5906 221.147 73.6073 221.147 74.859C221.147 76.1107 222.127 77.1275 223.334 77.1275H345.813C347.02 77.1275 348 76.1107 348 74.859C348 73.6073 347.02 72.5906 345.813 72.5906ZM251.767 22.6846H273.638V63.5168H251.767V22.6846ZM247.392 72.5906V68.0537H278.012V72.5906H247.392Z" fill="#AEAEAE"/>
<path d="M582.045 45.0774C582.152 44.3496 582.179 43.612 582.127 42.8772C582.134 42.7976 582.134 42.7179 582.127 42.6382C582.078 42.0491 581.969 41.4678 581.799 40.9033C580.925 37.8435 577.007 35.2637 569.101 32.5983L569.1 32.5992C562.822 30.761 556.331 29.8119 549.806 29.7785C546.488 26.7049 530.553 12.8585 510.686 12.224H510.687C498.471 11.9053 486.25 12.3755 474.092 13.6344C470.092 14.0288 467.647 14.3672 467.565 14.3672H467.566C466.87 14.4596 466.27 14.9189 465.982 15.5799C465.683 16.2398 465.734 17.0129 466.118 17.6247L466.773 18.6545V18.6535C465.551 20.118 464.428 21.6681 463.414 23.2929C462.674 24.5361 462.07 25.8599 461.612 27.241L461.517 27.4947C460.223 31.725 459.354 36.0812 458.922 40.4953H458.731C457.924 40.8258 457.232 41.3992 456.746 42.1408C456.259 42.8824 455.999 43.7588 456 44.6548V57.9228C456.003 59.0814 456.445 60.1928 457.231 61.0201C458.016 61.8472 459.084 62.3242 460.205 62.3498L467.155 62.4904V62.4914C467.818 66.3853 470.199 69.7372 473.597 71.5589C476.995 73.3804 481.02 73.463 484.485 71.7821C487.95 70.1012 490.458 66.8486 491.27 62.9851L543.567 64.0287V64.0277C544.558 67.5006 546.94 70.3697 550.11 71.9147C553.281 73.4589 556.94 73.5317 560.165 72.1144C563.391 70.6961 565.877 67.9233 566.998 64.4937C570.111 64.4937 574.385 64.24 576.87 63.0833C582.182 60.6579 582.878 51.6053 582.96 49.8153C583.119 48.1767 582.8 46.5272 582.046 45.0776L582.045 45.0774ZM576.584 40.7066C575.123 40.7066 573.703 40.7066 573.17 40.5935H573.169C569.75 40.1972 566.619 38.4238 564.458 35.658C565.591 35.9255 566.725 36.2363 567.803 36.6032C570.916 37.511 573.88 38.8939 576.597 40.7066L576.584 40.7066ZM510.522 16.4121C524.6 16.891 536.876 24.7881 543.145 29.6378L500.555 28.8342C500.679 24.9128 501.192 21.0149 502.084 17.2018C502.153 16.89 502.153 16.5674 502.084 16.2566C504.869 16.2429 507.696 16.2704 510.523 16.412L510.522 16.4121ZM495.038 28.7074L481.479 24.5617L477.615 17.5116C483.076 17.0326 490.245 16.5103 498.096 16.3274C497.144 20.4041 496.599 24.5715 496.472 28.7635L495.038 28.7074ZM467.729 35.7575C466.4 35.9631 465.055 36.0339 463.714 35.969C463.947 34.5585 464.233 33.1492 464.561 31.8517C465.789 32.9523 466.835 34.2526 467.66 35.7003L467.729 35.7575ZM479.226 69.1598H479.225C477.053 69.1598 474.969 68.2687 473.432 66.6812C471.896 65.0948 471.033 62.9427 471.033 60.6992C471.033 58.4557 471.896 56.3038 473.432 54.7172C474.969 53.1307 477.053 52.2397 479.225 52.2397C481.399 52.2397 483.483 53.1308 485.019 54.7172C486.555 56.3037 487.418 58.4558 487.418 60.6992V60.7838V60.8684C487.361 63.0853 486.464 65.1901 484.918 66.7303C483.373 68.2705 481.304 69.1223 479.158 69.1026L479.226 69.1598ZM555.324 69.1598H555.323C553.322 69.15 551.395 68.3838 549.903 67.0078C548.411 65.6308 547.459 63.7386 547.226 61.6867V60.7838C547.063 58.3387 547.936 55.9409 549.617 54.2116C551.299 52.4816 553.625 51.5905 555.992 51.7675C558.359 51.9456 560.536 53.174 561.959 55.1362C563.381 57.0984 563.908 59.6014 563.406 61.9965V62.2079C563.05 64.1642 562.038 65.9276 560.546 67.1885C559.056 68.4495 557.182 69.1271 555.254 69.1025L555.324 69.1598ZM578.781 49.6726C578.59 53.7052 577.266 58.2875 575.122 59.2751C572.645 60.0511 570.062 60.3993 567.475 60.3048C567.088 56.1327 564.731 52.4276 561.178 50.4045C557.624 48.3803 553.332 48.2987 549.708 50.1852C546.085 52.0726 543.597 55.6852 543.061 59.8398L491.241 58.81C490.57 54.9269 488.188 51.5867 484.796 49.773C481.404 47.9584 477.388 47.8758 473.928 49.5498C470.47 51.2238 467.961 54.4637 467.141 58.316L460.177 58.1754C460.128 58.1754 460.08 58.1547 460.047 58.1164C460.013 58.079 459.996 58.0288 459.999 57.9777V44.7097C459.994 44.631 460.038 44.5573 460.109 44.5268L461.475 44.0055V44.0045C462.235 43.7271 462.768 43.016 462.84 42.1859C462.84 41.6499 462.949 40.9447 463.044 40.1273H464.587C469.052 40.1273 471.756 39.3523 471.975 36.743C472.07 35.8126 472.316 33.0488 465.898 27.3669H465.899C466.156 26.7453 466.462 26.1463 466.813 25.5759C467.819 23.7838 469.034 22.1266 470.432 20.6413C471.246 20.0895 471.577 19.0263 471.224 18.0889L473.149 17.8775L478.324 27.3246C478.582 27.8045 479.015 28.1596 479.526 28.3111L494.178 32.7952H494.177C494.338 32.8395 494.503 32.8631 494.669 32.866L548.932 33.8673H549H548.999C552.762 33.9007 556.516 34.2017 560.238 34.7692C560.067 35.7586 560.294 36.7766 560.865 37.589C563.705 41.6226 568.076 44.2133 572.882 44.7098C573.728 44.7098 576.104 44.8229 577.893 44.8505V44.8514C577.698 45.3954 577.732 45.9983 577.989 46.5146C578.127 46.8185 578.338 47.0812 578.603 47.2759C578.815 48.0549 578.875 48.8702 578.78 49.6728L578.781 49.6726Z" fill="#AEAEAE"/>
<path d="M177.998 49.0277C177.976 48.3746 177.717 47.752 177.27 47.2781L164.562 33.9472C163.906 33.2595 162.935 32.9769 162.016 33.2052C161.096 33.4339 160.368 34.1388 160.105 35.0549C159.841 35.9711 160.083 36.959 160.74 37.6467L171.677 49.1274L160.74 60.6081C160.083 61.2959 159.841 62.2838 160.105 63.1999C160.368 64.1161 161.096 64.8209 162.016 65.0497C162.935 65.2781 163.906 64.9954 164.562 64.3076L177.27 50.9768C177.765 50.4531 178.028 49.7493 177.998 49.027L177.998 49.0277Z" fill="#AEAEAE"/>
<path d="M412.998 49.0277C412.976 48.3746 412.717 47.752 412.27 47.2781L399.562 33.9472C398.906 33.2595 397.935 32.9769 397.016 33.2052C396.096 33.4339 395.368 34.1388 395.105 35.0549C394.841 35.9711 395.083 36.959 395.74 37.6467L406.677 49.1274L395.74 60.6081C395.083 61.2959 394.841 62.2838 395.105 63.1999C395.368 64.1161 396.096 64.8209 397.016 65.0497C397.935 65.2781 398.906 64.9954 399.562 64.3076L412.27 50.9768C412.765 50.4531 413.028 49.7493 412.998 49.027L412.998 49.0277Z" fill="#AEAEAE"/>
<path d="M27.9648 110.68H28.5605C29.8496 110.68 30.709 110.54 31.1387 110.26C31.5684 109.98 31.7832 109.485 31.7832 108.775C31.7832 108.014 31.5521 107.477 31.0898 107.164C30.6341 106.852 29.791 106.695 28.5605 106.695H27.9648V110.68ZM27.8184 112.584V119H25.6406V104.703H29.1562C30.1979 104.703 30.9629 104.762 31.4512 104.879C31.946 104.99 32.3757 105.175 32.7402 105.436C33.1895 105.768 33.541 106.217 33.7949 106.783C34.0488 107.343 34.1758 107.962 34.1758 108.639C34.1758 109.316 34.0488 109.941 33.7949 110.514C33.541 111.087 33.1895 111.536 32.7402 111.861C32.3757 112.122 31.946 112.307 31.4512 112.418C30.9629 112.529 30.1979 112.584 29.1562 112.584H28.6973H27.8184ZM44.0977 119H41.9785V117.799C41.6009 118.333 41.1582 118.73 40.6504 118.99C40.1491 119.251 39.5729 119.381 38.9219 119.381C37.6133 119.381 36.5814 118.935 35.8262 118.043C35.0775 117.145 34.7031 115.917 34.7031 114.361C34.7031 112.883 35.0872 111.692 35.8555 110.787C36.6237 109.876 37.6263 109.42 38.8633 109.42C39.6185 109.42 40.263 109.579 40.7969 109.898C41.3372 110.211 41.7311 110.663 41.9785 111.256V109.742H44.0977V119ZM42.0371 114.342C42.0371 113.385 41.8125 112.639 41.3633 112.105C40.9206 111.572 40.2988 111.305 39.498 111.305C38.6973 111.305 38.0658 111.581 37.6035 112.135C37.1478 112.682 36.9199 113.443 36.9199 114.42C36.9199 115.403 37.1413 116.161 37.584 116.695C38.0267 117.229 38.6517 117.496 39.459 117.496C40.2207 117.496 40.8392 117.206 41.3145 116.627C41.7962 116.048 42.0371 115.286 42.0371 114.342ZM53.6777 114.342C53.6777 113.385 53.4531 112.639 53.0039 112.105C52.5612 111.572 51.9395 111.305 51.1387 111.305C50.3379 111.305 49.7064 111.581 49.2441 112.135C48.7884 112.682 48.5605 113.443 48.5605 114.42C48.5605 115.403 48.7819 116.161 49.2246 116.695C49.6673 117.229 50.2923 117.496 51.0996 117.496C51.8613 117.496 52.4798 117.206 52.9551 116.627C53.4368 116.048 53.6777 115.286 53.6777 114.342ZM55.7383 118.424C55.7383 120.234 55.377 121.507 54.6543 122.242C53.9316 122.984 52.7142 123.355 51.002 123.355C49.7259 123.355 48.707 123.085 47.9453 122.545C47.1836 122.011 46.7962 121.298 46.7832 120.406L49.0586 120.396C49.0911 120.794 49.2767 121.096 49.6152 121.305C49.9538 121.513 50.429 121.617 51.041 121.617C51.946 121.617 52.597 121.419 52.9941 121.021C53.3913 120.624 53.5931 119.96 53.5996 119.029L53.6191 117.799C53.2415 118.333 52.7988 118.73 52.291 118.99C51.7897 119.251 51.2135 119.381 50.5625 119.381C49.2539 119.381 48.222 118.935 47.4668 118.043C46.7181 117.145 46.3438 115.917 46.3438 114.361C46.3438 112.883 46.7279 111.692 47.4961 110.787C48.2643 109.876 49.2669 109.42 50.5039 109.42C51.2591 109.42 51.9036 109.579 52.4375 109.898C52.9779 110.211 53.3717 110.663 53.6191 111.256V109.742H55.7383V118.424ZM67.3789 119H65.2598V117.799C64.8822 118.333 64.4395 118.73 63.9316 118.99C63.4303 119.251 62.8542 119.381 62.2031 119.381C60.8945 119.381 59.8626 118.935 59.1074 118.043C58.3587 117.145 57.9844 115.917 57.9844 114.361C57.9844 112.883 58.3685 111.692 59.1367 110.787C59.9049 109.876 60.9076 109.42 62.1445 109.42C62.8997 109.42 63.5443 109.579 64.0781 109.898C64.6185 110.211 65.0124 110.663 65.2598 111.256V109.742H67.3789V119ZM65.3184 114.342C65.3184 113.385 65.0938 112.639 64.6445 112.105C64.2018 111.572 63.5801 111.305 62.7793 111.305C61.9785 111.305 61.347 111.581 60.8848 112.135C60.429 112.682 60.2012 113.443 60.2012 114.42C60.2012 115.403 60.4225 116.161 60.8652 116.695C61.3079 117.229 61.9329 117.496 62.7402 117.496C63.502 117.496 64.1204 117.206 64.5957 116.627C65.0775 116.048 65.3184 115.286 65.3184 114.342Z" fill="#AEAEAE"/>
<path d="M254.965 110.797H255.385C256.615 110.797 257.432 110.654 257.836 110.367C258.24 110.081 258.441 109.573 258.441 108.844C258.441 108.056 258.223 107.503 257.787 107.184C257.357 106.858 256.557 106.695 255.385 106.695H254.965V110.797ZM254.818 112.604V119H252.641V104.703H255.883C256.833 104.703 257.569 104.765 258.09 104.889C258.617 105.012 259.066 105.217 259.438 105.504C259.88 105.849 260.222 106.295 260.463 106.842C260.704 107.389 260.824 107.988 260.824 108.639C260.824 109.785 260.548 110.683 259.994 111.334C259.441 111.979 258.624 112.366 257.543 112.496L262.465 119H259.838L255.082 112.604H254.818ZM272.24 114.684H264.838C264.89 115.549 265.147 116.227 265.609 116.715C266.072 117.197 266.687 117.438 267.455 117.438C268.139 117.438 268.708 117.294 269.164 117.008C269.62 116.721 270.017 116.259 270.355 115.621L272.143 116.617C271.622 117.548 270.977 118.242 270.209 118.697C269.441 119.153 268.539 119.381 267.504 119.381C266.02 119.381 264.838 118.928 263.959 118.023C263.08 117.118 262.641 115.911 262.641 114.4C262.641 112.949 263.093 111.757 263.998 110.826C264.91 109.889 266.078 109.42 267.504 109.42C268.995 109.42 270.157 109.846 270.99 110.699C271.824 111.552 272.24 112.747 272.24 114.283V114.684ZM270.043 113.258C269.958 112.594 269.704 112.089 269.281 111.744C268.858 111.393 268.279 111.217 267.543 111.217C266.846 111.217 266.286 111.386 265.863 111.725C265.44 112.063 265.144 112.574 264.975 113.258H270.043ZM281.371 112.379C281.046 112.021 280.665 111.747 280.229 111.559C279.799 111.37 279.333 111.275 278.832 111.275C277.966 111.275 277.273 111.555 276.752 112.115C276.231 112.675 275.971 113.417 275.971 114.342C275.971 115.305 276.231 116.064 276.752 116.617C277.279 117.164 278.005 117.438 278.93 117.438C279.444 117.438 279.903 117.343 280.307 117.154C280.71 116.959 281.065 116.666 281.371 116.275V118.717C280.98 118.938 280.561 119.104 280.111 119.215C279.669 119.326 279.197 119.381 278.695 119.381C277.243 119.381 276.059 118.919 275.141 117.994C274.229 117.07 273.773 115.872 273.773 114.4C273.773 112.91 274.245 111.708 275.189 110.797C276.14 109.879 277.38 109.42 278.91 109.42C279.392 109.42 279.835 109.469 280.238 109.566C280.642 109.658 281.02 109.801 281.371 109.996V112.379ZM292.25 119H290.131V117.799C289.753 118.333 289.311 118.73 288.803 118.99C288.301 119.251 287.725 119.381 287.074 119.381C285.766 119.381 284.734 118.935 283.979 118.043C283.23 117.145 282.855 115.917 282.855 114.361C282.855 112.883 283.24 111.692 284.008 110.787C284.776 109.876 285.779 109.42 287.016 109.42C287.771 109.42 288.415 109.579 288.949 109.898C289.49 110.211 289.883 110.663 290.131 111.256V109.742H292.25V119ZM290.189 114.342C290.189 113.385 289.965 112.639 289.516 112.105C289.073 111.572 288.451 111.305 287.65 111.305C286.85 111.305 286.218 111.581 285.756 112.135C285.3 112.682 285.072 113.443 285.072 114.42C285.072 115.403 285.294 116.161 285.736 116.695C286.179 117.229 286.804 117.496 287.611 117.496C288.373 117.496 288.992 117.206 289.467 116.627C289.949 116.048 290.189 115.286 290.189 114.342ZM297.299 111.217C297.527 110.605 297.826 110.152 298.197 109.859C298.575 109.566 299.04 109.42 299.594 109.42C299.893 109.42 300.186 109.456 300.473 109.527C300.766 109.599 301.052 109.703 301.332 109.84L300.57 111.637C300.388 111.507 300.189 111.412 299.975 111.354C299.766 111.288 299.532 111.256 299.271 111.256C298.568 111.256 298.064 111.539 297.758 112.105C297.452 112.665 297.299 113.609 297.299 114.938V119H295.18V109.723H297.299V111.217ZM309.193 114.342C309.193 113.385 308.969 112.639 308.52 112.105C308.077 111.572 307.455 111.305 306.654 111.305C305.854 111.305 305.222 111.581 304.76 112.135C304.304 112.682 304.076 113.443 304.076 114.42C304.076 115.403 304.298 116.161 304.74 116.695C305.183 117.229 305.808 117.496 306.615 117.496C307.377 117.496 307.995 117.206 308.471 116.627C308.952 116.048 309.193 115.286 309.193 114.342ZM311.254 118.424C311.254 120.234 310.893 121.507 310.17 122.242C309.447 122.984 308.23 123.355 306.518 123.355C305.242 123.355 304.223 123.085 303.461 122.545C302.699 122.011 302.312 121.298 302.299 120.406L304.574 120.396C304.607 120.794 304.792 121.096 305.131 121.305C305.469 121.513 305.945 121.617 306.557 121.617C307.462 121.617 308.113 121.419 308.51 121.021C308.907 120.624 309.109 119.96 309.115 119.029L309.135 117.799C308.757 118.333 308.314 118.73 307.807 118.99C307.305 119.251 306.729 119.381 306.078 119.381C304.77 119.381 303.738 118.935 302.982 118.043C302.234 117.145 301.859 115.917 301.859 114.361C301.859 112.883 302.243 111.692 303.012 110.787C303.78 109.876 304.783 109.42 306.02 109.42C306.775 109.42 307.419 109.579 307.953 109.898C308.493 110.211 308.887 110.663 309.135 111.256V109.742H311.254V118.424ZM322.895 119H320.775V117.799C320.398 118.333 319.955 118.73 319.447 118.99C318.946 119.251 318.37 119.381 317.719 119.381C316.41 119.381 315.378 118.935 314.623 118.043C313.874 117.145 313.5 115.917 313.5 114.361C313.5 112.883 313.884 111.692 314.652 110.787C315.421 109.876 316.423 109.42 317.66 109.42C318.415 109.42 319.06 109.579 319.594 109.898C320.134 110.211 320.528 110.663 320.775 111.256V109.742H322.895V119ZM320.834 114.342C320.834 113.385 320.609 112.639 320.16 112.105C319.717 111.572 319.096 111.305 318.295 111.305C317.494 111.305 316.863 111.581 316.4 112.135C315.945 112.682 315.717 113.443 315.717 114.42C315.717 115.403 315.938 116.161 316.381 116.695C316.824 117.229 317.449 117.496 318.256 117.496C319.018 117.496 319.636 117.206 320.111 116.627C320.593 116.048 320.834 115.286 320.834 114.342Z" fill="#AEAEAE"/>
<path d="M491.115 108.18C490.458 107.62 489.761 107.2 489.025 106.92C488.296 106.64 487.528 106.5 486.721 106.5C485.158 106.5 483.885 107.001 482.902 108.004C481.926 109.007 481.438 110.305 481.438 111.9C481.438 113.443 481.913 114.716 482.863 115.719C483.82 116.721 485.025 117.223 486.477 117.223C487.323 117.223 488.127 117.073 488.889 116.773C489.657 116.474 490.393 116.021 491.096 115.416V118.043C490.471 118.492 489.79 118.827 489.055 119.049C488.319 119.27 487.521 119.381 486.662 119.381C485.568 119.381 484.556 119.202 483.625 118.844C482.701 118.486 481.887 117.958 481.184 117.262C480.487 116.578 479.95 115.774 479.572 114.85C479.201 113.919 479.016 112.929 479.016 111.881C479.016 110.833 479.201 109.85 479.572 108.932C479.95 108.007 480.493 107.197 481.203 106.5C481.913 105.797 482.727 105.266 483.645 104.908C484.562 104.544 485.555 104.361 486.623 104.361C487.463 104.361 488.264 104.485 489.025 104.732C489.787 104.973 490.526 105.341 491.242 105.836L491.115 108.18ZM501.096 114.4C501.096 113.541 500.819 112.815 500.266 112.223C499.712 111.624 499.035 111.324 498.234 111.324C497.44 111.324 496.763 111.624 496.203 112.223C495.65 112.815 495.373 113.541 495.373 114.4C495.373 115.26 495.65 115.989 496.203 116.588C496.763 117.18 497.44 117.477 498.234 117.477C499.029 117.477 499.702 117.18 500.256 116.588C500.816 115.989 501.096 115.26 501.096 114.4ZM493.137 114.381C493.137 113.704 493.264 113.066 493.518 112.467C493.778 111.861 494.149 111.324 494.631 110.855C495.106 110.393 495.653 110.038 496.271 109.791C496.89 109.544 497.538 109.42 498.215 109.42C498.911 109.42 499.566 109.544 500.178 109.791C500.796 110.038 501.35 110.403 501.838 110.885C502.326 111.36 502.697 111.897 502.951 112.496C503.205 113.095 503.332 113.723 503.332 114.381C503.332 115.064 503.205 115.706 502.951 116.305C502.704 116.904 502.339 117.434 501.857 117.896C501.35 118.385 500.786 118.753 500.168 119C499.549 119.254 498.898 119.381 498.215 119.381C497.544 119.381 496.9 119.254 496.281 119C495.663 118.753 495.113 118.391 494.631 117.916C494.143 117.434 493.771 116.894 493.518 116.295C493.264 115.696 493.137 115.058 493.137 114.381ZM505.578 119V109.742H507.57V111.256C507.993 110.618 508.492 110.152 509.064 109.859C509.637 109.566 510.334 109.42 511.154 109.42C511.844 109.42 512.43 109.531 512.912 109.752C513.4 109.967 513.781 110.289 514.055 110.719C514.217 110.973 514.335 111.269 514.406 111.607C514.478 111.946 514.514 112.538 514.514 113.385V119H512.375V114.244C512.375 113.027 512.225 112.219 511.926 111.822C511.633 111.419 511.109 111.217 510.354 111.217C509.859 111.217 509.416 111.308 509.025 111.49C508.641 111.673 508.339 111.93 508.117 112.262C507.961 112.483 507.85 112.77 507.785 113.121C507.727 113.466 507.697 114.02 507.697 114.781V119H505.578ZM523.986 114.342C523.986 113.385 523.762 112.639 523.312 112.105C522.87 111.572 522.248 111.305 521.447 111.305C520.646 111.305 520.015 111.581 519.553 112.135C519.097 112.682 518.869 113.443 518.869 114.42C518.869 115.403 519.09 116.161 519.533 116.695C519.976 117.229 520.601 117.496 521.408 117.496C522.176 117.496 522.798 117.21 523.273 116.637C523.749 116.057 523.986 115.292 523.986 114.342ZM523.928 103.863H526.047V119H523.928V117.799C523.55 118.333 523.107 118.73 522.6 118.99C522.098 119.251 521.522 119.381 520.871 119.381C519.562 119.381 518.531 118.935 517.775 118.043C517.027 117.145 516.652 115.917 516.652 114.361C516.652 112.883 517.036 111.692 517.805 110.787C518.573 109.876 519.576 109.42 520.812 109.42C521.568 109.42 522.212 109.579 522.746 109.898C523.286 110.211 523.68 110.663 523.928 111.256V103.863ZM531.027 109.742V114.957C531.027 115.855 531.213 116.5 531.584 116.891C531.955 117.281 532.557 117.477 533.391 117.477C534.224 117.477 534.826 117.281 535.197 116.891C535.568 116.5 535.754 115.855 535.754 114.957V109.742H537.873V114.322C537.873 116.093 537.518 117.379 536.809 118.18C536.099 118.98 534.966 119.381 533.41 119.381C531.828 119.381 530.682 118.984 529.973 118.189C529.263 117.395 528.908 116.106 528.908 114.322V109.742H531.027ZM547.648 112.379C547.323 112.021 546.942 111.747 546.506 111.559C546.076 111.37 545.611 111.275 545.109 111.275C544.243 111.275 543.55 111.555 543.029 112.115C542.508 112.675 542.248 113.417 542.248 114.342C542.248 115.305 542.508 116.064 543.029 116.617C543.557 117.164 544.283 117.438 545.207 117.438C545.721 117.438 546.18 117.343 546.584 117.154C546.988 116.959 547.342 116.666 547.648 116.275V118.717C547.258 118.938 546.838 119.104 546.389 119.215C545.946 119.326 545.474 119.381 544.973 119.381C543.521 119.381 542.336 118.919 541.418 117.994C540.507 117.07 540.051 115.872 540.051 114.4C540.051 112.91 540.523 111.708 541.467 110.797C542.417 109.879 543.658 109.42 545.188 109.42C545.669 109.42 546.112 109.469 546.516 109.566C546.919 109.658 547.297 109.801 547.648 109.996V112.379ZM558.732 114.684H551.33C551.382 115.549 551.639 116.227 552.102 116.715C552.564 117.197 553.179 117.438 553.947 117.438C554.631 117.438 555.201 117.294 555.656 117.008C556.112 116.721 556.509 116.259 556.848 115.621L558.635 116.617C558.114 117.548 557.469 118.242 556.701 118.697C555.933 119.153 555.031 119.381 553.996 119.381C552.512 119.381 551.33 118.928 550.451 118.023C549.572 117.118 549.133 115.911 549.133 114.4C549.133 112.949 549.585 111.757 550.49 110.826C551.402 109.889 552.57 109.42 553.996 109.42C555.487 109.42 556.649 109.846 557.482 110.699C558.316 111.552 558.732 112.747 558.732 114.283V114.684ZM556.535 113.258C556.451 112.594 556.197 112.089 555.773 111.744C555.35 111.393 554.771 111.217 554.035 111.217C553.339 111.217 552.779 111.386 552.355 111.725C551.932 112.063 551.636 112.574 551.467 113.258H556.535Z" fill="#AEAEAE"/>
</svg>
